<svg version="1.1" xmlns="http://www.w3.org/2000/svg" xmlns:xlink="http://www.w3.org/1999/xlink" width="512" height="384"><g id="Frame-0" fill="none" fill-rule="nonzero" stroke="#010101" stroke-width="8" stroke-linecap="round" stroke-linejoin="miter" stroke-miterlimit="10" stroke-dasharray="" stroke-dashoffset="0" font-family="none" font-weight="none" font-size="none" text-anchor="none" style="mix-blend-mode: normal" visibility="hidden"><g id="Drawing"><path d="M131.5,125.20313c-8.15347,0 -16.2745,-6 -24,-6c-11.01507,0 -37.83302,15.16698 -25,28c13.56597,13.56597 68.19894,-4.39522 59,37c-3.85942,17.36737 -77,23.49342 -77,-5" id="Stroke-1297461290"/></g></g><g id="Frame-1" fill="none" fill-rule="nonzero" stroke="#010101" stroke-width="8" stroke-linecap="round" stroke-linejoin="miter" stroke-miterlimit="10" stroke-dasharray="" stroke-dashoffset="0" font-family="none" font-weight="none" font-size="none" text-anchor="none" style="mix-blend-mode: normal" visibility="hidden"><g id="Drawing"><path d="M131.5,125.20313c-8.15347,0 -16.2745,-6 -24,-6c-11.01507,0 -37.83302,15.16698 -25,28c13.56597,13.56597 68.19894,-4.39522 59,37c-3.85942,17.36737 -77,23.49342 -77,-5" id="Stroke-1297461290 1"/><path d="M156.5,168.20313c0,0.74536 1.2769,0.81922 2,1c11.96149,2.99037 36,7.69283 36,-11c0,-2.14122 0.72142,-6.27858 -1,-8c-11.61054,-11.61054 -44.62877,5.5151 -48,19c-3.99831,15.99325 48.8665,34.267 58,16" id="Stroke-1297461352"/></g></g><g id="Frame-2" fill="none" fill-rule="nonzero" stroke="#010101" stroke-width="8" stroke-linecap="round" stroke-linejoin="miter" stroke-miterlimit="10" stroke-dasharray="" stroke-dashoffset="0" font-family="none" font-weight="none" font-size="none" text-anchor="none" style="mix-blend-mode: normal" visibility="hidden"><g id="Drawing"><path d="M131.5,125.20313c-8.15347,0 -16.2745,-6 -24,-6c-11.01507,0 -37.83302,15.16698 -25,28c13.56597,13.56597 68.19894,-4.39522 59,37c-3.85942,17.36737 -77,23.49342 -77,-5" id="Stroke-1297461290 1 1"/><path d="M156.5,168.20313c0,0.74536 1.2769,0.81922 2,1c11.96149,2.99037 36,7.69283 36,-11c0,-2.14122 0.72142,-6.27858 -1,-8c-11.61054,-11.61054 -44.62877,5.5151 -48,19c-3.99831,15.99325 48.8665,34.267 58,16" id="Stroke-1297461352 1"/><path d="M228.5,98.20313c0,1.52194 -3.58563,7.68508 -4,11c-0.63484,5.07875 -1.33511,90.66489 0,92c2.02332,2.02332 14.26618,-0.30376 17,0c7.92925,0.88103 22.94954,4.28785 30,-1c6.26646,-4.69985 7.39053,-9.6864 8,-17c2.90623,-34.87478 -62,-27.98967 -62,6" id="Stroke-1297461416"/></g></g><g id="Frame-3" fill="none" fill-rule="nonzero" stroke="#010101" stroke-width="8" stroke-linecap="round" stroke-linejoin="miter" stroke-miterlimit="10" stroke-dasharray="" stroke-dashoffset="0" font-family="none" font-weight="none" font-size="none" text-anchor="none" style="mix-blend-mode: normal" visibility="hidden"><g id="Drawing"><path d="M131.5,125.20313c-8.15347,0 -16.2745,-6 -24,-6c-11.01507,0 -37.83302,15.16698 -25,28c13.56597,13.56597 68.19894,-4.39522 59,37c-3.85942,17.36737 -77,23.49342 -77,-5" id="Stroke-1297461290 1 1 1"/><path d="M156.5,168.20313c0,0.74536 1.2769,0.81922 2,1c11.96149,2.99037 36,7.69283 36,-11c0,-2.14122 0.72142,-6.27858 -1,-8c-11.61054,-11.61054 -44.62877,5.5151 -48,19c-3.99831,15.99325 48.8665,34.267 58,16" id="Stroke-1297461352 1 1"/><path d="M228.5,98.20313c0,1.52194 -3.58563,7.68508 -4,11c-0.63484,5.07875 -1.33511,90.66489 0,92c2.02332,2.02332 14.26618,-0.30376 17,0c7.92925,0.88103 22.94954,4.28785 30,-1c6.26646,-4.69985 7.39053,-9.6864 8,-17c2.90623,-34.87478 -62,-27.98967 -62,6" id="Stroke-1297461416 1"/><path d="M310.5,157.20313c-16.42767,0 -27.37288,50.12542 -18,52c26.85212,5.37042 52.71302,-46.64349 36,-55c-9.39339,-4.6967 11.47347,39.05238 14,42c6.01473,7.01718 21,6.17876 21,16" id="Stroke-1297461503"/></g></g><g id="Frame-4" fill="none" fill-rule="nonzero" stroke="#010101" stroke-width="8" stroke-linecap="round" stroke-linejoin="miter" stroke-miterlimit="10" stroke-dasharray="" stroke-dashoffset="0" font-family="none" font-weight="none" font-size="none" text-anchor="none" style="mix-blend-mode: normal" visibility="hidden"><g id="Drawing"><path d="M131.5,125.20313c-8.15347,0 -16.2745,-6 -24,-6c-11.01507,0 -37.83302,15.16698 -25,28c13.56597,13.56597 68.19894,-4.39522 59,37c-3.85942,17.36737 -77,23.49342 -77,-5" id="Stroke-1297461290 1 1 1 1"/><path d="M156.5,168.20313c0,0.74536 1.2769,0.81922 2,1c11.96149,2.99037 36,7.69283 36,-11c0,-2.14122 0.72142,-6.27858 -1,-8c-11.61054,-11.61054 -44.62877,5.5151 -48,19c-3.99831,15.99325 48.8665,34.267 58,16" id="Stroke-1297461352 1 1 1"/><path d="M228.5,98.20313c0,1.52194 -3.58563,7.68508 -4,11c-0.63484,5.07875 -1.33511,90.66489 0,92c2.02332,2.02332 14.26618,-0.30376 17,0c7.92925,0.88103 22.94954,4.28785 30,-1c6.26646,-4.69985 7.39053,-9.6864 8,-17c2.90623,-34.87478 -62,-27.98967 -62,6" id="Stroke-1297461416 1 1"/><path d="M310.5,157.20313c-16.42767,0 -27.37288,50.12542 -18,52c26.85212,5.37042 52.71302,-46.64349 36,-55c-9.39339,-4.6967 11.47347,39.05238 14,42c6.01473,7.01718 21,6.17876 21,16" id="Stroke-1297461503 1"/><path d="M404.5,156.20313c5.21746,-5.21746 -35.06135,-13.63188 -39,10c-1.98041,11.88243 34.6625,19.37499 32,46c-3.21917,32.19172 -25.16481,17.67038 -34,0" id="Stroke-1566593236"/></g></g><g id="Frame-5" fill="none" fill-rule="nonzero" stroke="#010101" stroke-width="8" stroke-linecap="round" stroke-linejoin="miter" stroke-miterlimit="10" stroke-dasharray="" stroke-dashoffset="0" font-family="none" font-weight="none" font-size="none" text-anchor="none" style="mix-blend-mode: normal" visibility="hidden"><g id="Drawing"><path d="M131.5,125.20313c-8.15347,0 -16.2745,-6 -24,-6c-11.01507,0 -37.83302,15.16698 -25,28c13.56597,13.56597 68.19894,-4.39522 59,37c-3.85942,17.36737 -77,23.49342 -77,-5" id="Stroke-1297461290 1 1 1 1 1"/><path d="M156.5,168.20313c0,0.74536 1.2769,0.81922 2,1c11.96149,2.99037 36,7.69283 36,-11c0,-2.14122 0.72142,-6.27858 -1,-8c-11.61054,-11.61054 -44.62877,5.5151 -48,19c-3.99831,15.99325 48.8665,34.267 58,16" id="Stroke-1297461352 1 1 1 1"/><path d="M228.5,98.20313c0,1.52194 -3.58563,7.68508 -4,11c-0.63484,5.07875 -1.33511,90.66489 0,92c2.02332,2.02332 14.26618,-0.30376 17,0c7.92925,0.88103 22.94954,4.28785 30,-1c6.26646,-4.69985 7.39053,-9.6864 8,-17c2.90623,-34.87478 -62,-27.98967 -62,6" id="Stroke-1297461416 1 1 1"/><path d="M310.5,157.20313c-16.42767,0 -27.37288,50.12542 -18,52c26.85212,5.37042 52.71302,-46.64349 36,-55c-9.39339,-4.6967 11.47347,39.05238 14,42c6.01473,7.01718 21,6.17876 21,16" id="Stroke-1297461503 1 1"/></g></g><g id="Frame-6" fill="none" fill-rule="nonzero" stroke="#010101" stroke-width="8" stroke-linecap="round" stroke-linejoin="miter" stroke-miterlimit="10" stroke-dasharray="" stroke-dashoffset="0" font-family="none" font-weight="none" font-size="none" text-anchor="none" style="mix-blend-mode: normal" visibility="hidden"><g id="Drawing"><path d="M131.5,125.20313c-8.15347,0 -16.2745,-6 -24,-6c-11.01507,0 -37.83302,15.16698 -25,28c13.56597,13.56597 68.19894,-4.39522 59,37c-3.85942,17.36737 -77,23.49342 -77,-5" id="Stroke-1297461290 1 1 1 1 1 1"/><path d="M156.5,168.20313c0,0.74536 1.2769,0.81922 2,1c11.96149,2.99037 36,7.69283 36,-11c0,-2.14122 0.72142,-6.27858 -1,-8c-11.61054,-11.61054 -44.62877,5.5151 -48,19c-3.99831,15.99325 48.8665,34.267 58,16" id="Stroke-1297461352 1 1 1 1 1"/><path d="M228.5,98.20313c0,1.52194 -3.58563,7.68508 -4,11c-0.63484,5.07875 -1.33511,90.66489 0,92c2.02332,2.02332 14.26618,-0.30376 17,0c7.92925,0.88103 22.94954,4.28785 30,-1c6.26646,-4.69985 7.39053,-9.6864 8,-17c2.90623,-34.87478 -62,-27.98967 -62,6" id="Stroke-1297461416 1 1 1 1"/></g></g><g id="Frame-7" fill="none" fill-rule="nonzero" stroke="#010101" stroke-width="8" stroke-linecap="round" stroke-linejoin="miter" stroke-miterlimit="10" stroke-dasharray="" stroke-dashoffset="0" font-family="none" font-weight="none" font-size="none" text-anchor="none" style="mix-blend-mode: normal" visibility="hidden"><g id="Drawing"><path d="M131.5,125.20313c-8.15347,0 -16.2745,-6 -24,-6c-11.01507,0 -37.83302,15.16698 -25,28c13.56597,13.56597 68.19894,-4.39522 59,37c-3.85942,17.36737 -77,23.49342 -77,-5" id="Stroke-1297461290 1 1 1 1 1 1 1"/><path d="M156.5,168.20313c0,0.74536 1.2769,0.81922 2,1c11.96149,2.99037 36,7.69283 36,-11c0,-2.14122 0.72142,-6.27858 -1,-8c-11.61054,-11.61054 -44.62877,5.5151 -48,19c-3.99831,15.99325 48.8665,34.267 58,16" id="Stroke-1297461352 1 1 1 1 1 1"/></g></g><g id="Frame-8" fill="none" fill-rule="nonzero" stroke="#010101" stroke-width="8" stroke-linecap="round" stroke-linejoin="miter" stroke-miterlimit="10" stroke-dasharray="" stroke-dashoffset="0" font-family="none" font-weight="none" font-size="none" text-anchor="none" style="mix-blend-mode: normal" visibility="hidden"><g id="Drawing"><path d="M131.5,125.20313c-8.15347,0 -16.2745,-6 -24,-6c-11.01507,0 -37.83302,15.16698 -25,28c13.56597,13.56597 68.19894,-4.39522 59,37c-3.85942,17.36737 -77,23.49342 -77,-5" id="Stroke-1297461290 1 1 1 1 1 1 1 1"/></g></g><g id="Frame-9" fill="none" fill-rule="nonzero" stroke="none" stroke-width="1" stroke-linecap="butt" stroke-linejoin="miter" stroke-miterlimit="10" stroke-dasharray="" stroke-dashoffset="0" font-family="sans-serif" font-weight="normal" font-size="12" text-anchor="start" style="mix-blend-mode: normal" visibility="hidden"><g id="Drawing"/></g>  <style type="text/css">
    @keyframes flash { 0%   { visibility: visible; }
                       10%  { visibility: hidden;  } }
    #Frame-0 { animation: flash 1s linear infinite 0s;    }
    #Frame-1 { animation: flash 1s linear infinite 0.1s;    }
    #Frame-2 { animation: flash 1s linear infinite 0.2s;    }
    #Frame-3 { animation: flash 1s linear infinite 0.30000000000000004s;    }
    #Frame-4 { animation: flash 1s linear infinite 0.4s;    }
    #Frame-5 { animation: flash 1s linear infinite 0.5s;    }
    #Frame-6 { animation: flash 1s linear infinite 0.6000000000000001s;    }
    #Frame-7 { animation: flash 1s linear infinite 0.7000000000000001s;    }
    #Frame-8 { animation: flash 1s linear infinite 0.8s;    }
    #Frame-9 { animation: flash 1s linear infinite 0.9s;    }
  </style></svg>